<svg width="112" height="32" viewBox="0 0 112 32" fill="none" xmlns="http://www.w3.org/2000/svg">
<path d="M80.4949 9.35296C79.8087 8.46854 78.9293 7.75277 77.924 7.26036C76.9188 6.76796 75.8142 6.51197 74.6948 6.51197C73.5754 6.51197 72.4708 6.76796 71.4655 7.26036C70.4602 7.75277 69.5809 8.46854 68.8947 9.35296C67.9749 10.6651 67.4925 12.2339 67.5161 13.8361C67.4925 15.4384 67.9749 17.0072 68.8947 18.3193C69.5809 19.2037 70.4602 19.9195 71.4655 20.4119C72.4708 20.9043 73.5754 21.1603 74.6948 21.1603C75.8142 21.1603 76.9188 20.9043 77.924 20.4119C78.9293 19.9195 79.8087 19.2037 80.4949 18.3193C81.4143 17.007 81.8967 15.4383 81.8735 13.8361C81.8967 12.234 81.4143 10.6653 80.4949 9.35296ZM78.1973 15.5173C77.6705 17.0921 76.4208 18.3193 74.6892 18.3586C72.9575 18.3978 71.7079 17.0921 71.1867 15.5173C70.8139 14.4275 70.8139 13.2448 71.1867 12.1549C71.7135 10.5802 72.9632 9.35296 74.6892 9.31373C76.4152 9.2745 77.6705 10.5802 78.1973 12.1549C78.5683 13.2431 78.5683 14.4236 78.1973 15.5117V15.5173ZM25.3797 20.7851C25.3797 20.8951 25.336 21.0006 25.2582 21.0783C25.1805 21.1561 25.075 21.1998 24.965 21.1998H22.5553C22.4453 21.1998 22.3398 21.1561 22.2621 21.0783C22.1843 21.0006 22.1406 20.8951 22.1406 20.7851V0.974998C22.1406 0.865014 22.1843 0.759534 22.2621 0.681764C22.3398 0.603994 22.4453 0.560303 22.5553 0.560303H24.965C25.075 0.560303 25.1805 0.603994 25.2582 0.681764C25.336 0.759534 25.3797 0.865014 25.3797 0.974998V20.7851ZM19.7197 20.7851C19.7197 20.8951 19.676 21.0006 19.5982 21.0783C19.5204 21.1561 19.415 21.1998 19.305 21.1998H16.8953C16.7853 21.1998 16.6798 21.1561 16.602 21.0783C16.5243 21.0006 16.4806 20.8951 16.4806 20.7851V0.974998C16.4806 0.865978 16.5235 0.761339 16.6 0.683728C16.6766 0.606116 16.7807 0.561776 16.8897 0.560303H19.2994C19.4094 0.560303 19.5148 0.603994 19.5926 0.681764C19.6704 0.759534 19.7141 0.865014 19.7141 0.974998V20.7851H19.7197ZM66.9725 7.33552V9.01672C66.9822 9.08928 66.9736 9.16312 66.9473 9.23147C66.9211 9.29982 66.8781 9.36049 66.8224 9.40791C66.7666 9.45532 66.6998 9.48796 66.6281 9.50284C66.5564 9.51772 66.4821 9.51436 66.4121 9.49306C63.6885 8.93266 62.013 10.1431 62.013 12.6593V20.7851C62.013 20.8951 61.9693 21.0006 61.8915 21.0783C61.8137 21.1561 61.7082 21.1998 61.5983 21.1998H59.1885C59.0786 21.1998 58.9731 21.1561 58.8953 21.0783C58.8175 21.0006 58.7739 20.8951 58.7739 20.7851V12.4856C58.7594 11.7005 58.9101 10.9212 59.2161 10.1981C59.5221 9.47505 59.9767 8.82434 60.5503 8.2882C61.7283 7.13646 63.3132 6.49607 64.9607 6.50613C65.5246 6.50764 66.0873 6.56016 66.6419 6.66304C66.9277 6.75831 66.9725 6.92643 66.9725 7.35794V7.33552ZM56.6555 13.8305C56.6861 12.2273 56.203 10.6564 55.277 9.34735C54.5908 8.46294 53.7114 7.74716 52.7061 7.25476C51.7008 6.76235 50.5962 6.50636 49.4768 6.50636C48.3574 6.50636 47.2529 6.76235 46.2476 7.25476C45.2423 7.74716 44.3629 8.46294 43.6767 9.34735C42.766 10.665 42.2781 12.2288 42.2781 13.8305C42.2781 15.4323 42.766 16.9961 43.6767 18.3137C44.3519 19.2101 45.229 19.9346 46.2368 20.4283C47.2446 20.922 48.3547 21.171 49.4768 21.155C50.9466 21.1598 52.3844 20.7267 53.607 19.9109V21.6817C53.607 24.0858 51.5055 24.5229 50.1605 24.607C49.2351 24.6376 48.3088 24.587 47.3922 24.4557C47.0223 24.3997 46.7645 24.4557 46.7645 24.8536V26.9831C46.7667 27.0309 46.7782 27.0779 46.7986 27.1213C46.8189 27.1646 46.8476 27.2036 46.883 27.2359C46.9184 27.2681 46.9598 27.2931 47.0049 27.3094C47.0499 27.3256 47.0977 27.3328 47.1456 27.3305C50.267 27.5995 52.3685 27.5435 53.9488 26.6413C55.056 25.9866 55.8777 24.9409 56.2521 23.7104C56.5316 22.761 56.6658 21.7747 56.6499 20.7851V13.8305H56.6555ZM49.4768 18.3474C47.7452 18.3474 46.4955 17.0809 45.9687 15.5061C45.596 14.4163 45.596 13.2335 45.9687 12.1437C46.4955 10.569 47.7452 9.30252 49.4768 9.30252C53.3492 9.30252 53.4781 13.2533 53.4781 13.8249C53.4781 14.3965 53.3492 18.3474 49.4768 18.3474ZM14.2726 12.3791C14.2726 10.4681 13.8467 9.01672 12.9276 8.0136C12.0086 7.01049 10.1593 6.51174 8.44445 6.51174C6.72316 6.505 5.03097 6.95561 3.54097 7.81746C3.49433 7.84504 3.45578 7.88443 3.42922 7.93166C3.40266 7.97888 3.38901 8.03228 3.38966 8.08646L3.51855 10.1936C3.53 10.2591 3.55866 10.3204 3.60161 10.3713C3.64455 10.4221 3.70023 10.4606 3.76295 10.4828C3.82567 10.5051 3.89317 10.5102 3.95854 10.4978C4.02391 10.4854 4.08481 10.4558 4.13499 10.4121C6.23648 9.11759 8.75828 8.87662 10.0416 9.52668C10.3946 9.73016 10.6856 10.026 10.883 10.3825C11.0805 10.7389 11.1771 11.1425 11.1624 11.5497V11.8579H7.6599C6.15242 11.8579 1.53474 12.4183 1.53474 16.6606V16.7054C1.49881 17.3509 1.61556 17.9959 1.87553 18.5879C2.1355 19.1799 2.53137 19.7022 3.031 20.1126C4.12238 20.8814 5.44163 21.2586 6.77447 21.183H13.8635C13.9735 21.183 14.079 21.1393 14.1567 21.0615C14.2345 20.9837 14.2782 20.8783 14.2782 20.7683V12.3623L14.2726 12.3791ZM11.1624 18.5939H6.97621C6.4391 18.5785 5.9201 18.3964 5.49115 18.0728C5.27051 17.9178 5.09126 17.7111 4.96912 17.4708C4.84699 17.2304 4.78571 16.9637 4.79066 16.6942C4.79066 15.9376 5.30062 14.4246 7.85043 14.4246H11.1624V18.5939ZM34.2508 6.51174C29.9638 6.51174 28.0864 9.38658 27.4868 11.8187C27.3219 12.4747 27.2391 13.1486 27.2402 13.8249C27.2171 15.4271 27.6994 16.9958 28.6188 18.3081C29.3058 19.1916 30.1854 19.9068 31.1905 20.3991C32.1956 20.8915 33.2997 21.1481 34.4189 21.1493C36.7334 21.2334 38.2801 20.8411 39.4625 20.1686C39.5778 20.0943 39.6669 19.9856 39.7172 19.8579C39.7674 19.7302 39.7764 19.59 39.7427 19.4569V17.5908C39.7427 17.2097 39.513 17.0304 39.1823 17.2602C37.7983 18.1472 36.1558 18.542 34.5198 18.381C33.5881 18.3687 32.6932 18.016 32.0036 17.3894C31.314 16.7628 30.8775 15.9056 30.7763 14.9794H40.3031C40.4062 14.9794 40.5051 14.9388 40.5785 14.8665C40.6519 14.7941 40.6939 14.6957 40.6954 14.5927C40.8635 11.9868 40.107 6.51174 34.2508 6.51174ZM30.8268 12.4015C30.8461 11.9725 30.9505 11.5516 31.1339 11.1634C31.3174 10.7751 31.5762 10.4271 31.8953 10.1398C32.2145 9.85248 32.5876 9.63147 32.9929 9.48966C33.3983 9.34784 33.8277 9.28803 34.2564 9.31373C34.6667 9.28862 35.0776 9.3516 35.4615 9.49844C35.8454 9.64528 36.1934 9.87258 36.4822 10.1651C36.7709 10.4576 36.9938 10.8085 37.1357 11.1942C37.2776 11.58 37.3353 11.9916 37.305 12.4015H30.8268Z" fill="#FF5A00"/>
<path d="M60.93 32.0001C61.9152 32.0001 62.9161 31.5074 62.9161 30.3502C62.9161 29.3727 62.1342 28.9739 61.3679 28.7393L60.8049 28.5673C60.3044 28.4266 60.2731 28.1842 60.2731 28.0747C60.2731 27.7775 60.5234 27.543 60.9065 27.543C61.3288 27.543 61.5243 27.8166 61.5243 28.1372H62.7519C62.7519 27.0894 61.9621 26.4717 60.93 26.4717C59.8587 26.4717 59.0298 27.1285 59.0298 28.0981C59.0298 28.6064 59.2566 29.3336 60.4452 29.6542L61.0864 29.8497C61.5634 30.0061 61.6806 30.2016 61.6806 30.4127C61.6806 30.7646 61.3757 30.9444 60.9769 30.9444C60.5546 30.9444 60.2106 30.6786 60.2106 30.3345H58.9829C58.9829 31.3276 59.7805 32.0001 60.93 32.0001Z" fill="white"/>
<path d="M69.2023 26.5421V28.7002H67.4273V26.5421H66.1997V31.9297H67.4273V29.8028H69.2023V31.9297H70.43V26.5421H69.2023Z" fill="white"/>
<path d="M76.4604 32.0001C77.9774 32.0001 79.205 30.7568 79.205 29.232C79.205 27.7072 77.9774 26.4717 76.4604 26.4717C74.9199 26.4717 73.7079 27.7072 73.7079 29.232C73.7079 30.7568 74.9199 32.0001 76.4604 32.0001ZM76.4526 30.8428C75.5455 30.8428 74.9434 30.1312 74.9434 29.232C74.9434 28.3327 75.5455 27.629 76.4526 27.629C77.3518 27.629 77.9695 28.3327 77.9695 29.232C77.9695 30.1312 77.3518 30.8428 76.4526 30.8428Z" fill="white"/>
<path d="M87.4206 26.5421L86.4275 29.7793L85.7707 27.3084H84.762L84.0973 29.7637L83.1042 26.5421H81.7827L83.5968 31.9297H84.5586L85.2546 29.1929L85.974 31.9297H86.928L88.7577 26.5421H87.4206Z" fill="white"/>
<path d="M94.8122 29.0521C95.4299 28.8723 95.5707 28.3093 95.5707 27.9339C95.5707 27.1363 94.9373 26.5421 93.952 26.5421H91.7704V31.9297H94.1084C95.3752 31.9297 95.8522 31.1165 95.8522 30.3814C95.8522 29.7637 95.5237 29.1538 94.8122 29.0521ZM93.866 27.6133C94.2022 27.6133 94.343 27.8557 94.343 28.1294C94.343 28.4578 94.1475 28.6455 93.8582 28.6455H92.998V27.6133H93.866ZM93.9598 30.8584H92.998V29.6542H93.9598C94.4212 29.6542 94.6167 29.9748 94.6167 30.2563C94.6167 30.5613 94.3977 30.8584 93.9598 30.8584Z" fill="white"/>
<path d="M101.565 32.0001C103.082 32.0001 104.31 30.7568 104.31 29.232C104.31 27.7072 103.082 26.4717 101.565 26.4717C100.025 26.4717 98.8128 27.7072 98.8128 29.232C98.8128 30.7568 100.025 32.0001 101.565 32.0001ZM101.557 30.8428C100.65 30.8428 100.048 30.1312 100.048 29.232C100.048 28.3327 100.65 27.629 101.557 27.629C102.457 27.629 103.074 28.3327 103.074 29.232C103.074 30.1312 102.457 30.8428 101.557 30.8428Z" fill="white"/>
<path d="M111.895 31.9297L110.027 29.0599L111.731 26.5421H110.261L109.299 28.0825L108.353 26.5421H106.867L108.564 29.0599L106.711 31.9297H108.15L109.299 30.0374L110.449 31.9297H111.895Z" fill="white"/>
</svg>
