<?xml version="1.0" encoding="utf-8"?>
<!-- Generator: Adobe Illustrator 25.0.1, SVG Export Plug-In . SVG Version: 6.00 Build 0)  -->
<svg version="1.1" id="Warstwa_1" xmlns="http://www.w3.org/2000/svg" xmlns:xlink="http://www.w3.org/1999/xlink" x="0px" y="0px"
	 viewBox="0 0 304.2 48.1" style="enable-background:new 0 0 304.2 48.1;" xml:space="preserve">
<style type="text/css">
	.st0{fill:#FF5A00;}
	.st1{enable-background:new    ;}
	.st2{fill:#FFFFFF;}
</style>
<g>
	<path class="st0" d="M130.9,36.8c4.1,0,7.9-1.8,10.4-5.1c1.7-2.3,2.5-5.2,2.5-8s-0.8-5.7-2.5-8c-2.4-3.3-6.3-5.1-10.4-5.1
		s-7.9,1.8-10.4,5.1c-1.7,2.3-2.5,5.2-2.5,8s0.8,5.7,2.5,8C122.9,35.1,126.8,36.8,130.9,36.8 M124.6,20.7c0.9-2.8,3.2-5.1,6.3-5.1
		c3.1,0,5.3,2.3,6.3,5.1c0.3,0.9,0.5,2,0.5,3s-0.2,2.1-0.5,3c-0.9,2.8-3.2,5.1-6.3,5.1s-5.3-2.3-6.3-5.1c-0.3-0.9-0.5-2-0.5-3
		S124.3,21.6,124.6,20.7"/>
	<path class="st0" d="M37.6,36.9h4.3c0.4,0,0.7-0.3,0.7-0.7V0.7c0-0.4-0.3-0.7-0.7-0.7h-4.3c-0.4,0-0.7,0.3-0.7,0.7v35.4
		C36.9,36.6,37.2,36.9,37.6,36.9"/>
	<path class="st0" d="M27.5,36.9h4.3c0.4,0,0.7-0.3,0.7-0.7V0.7c0-0.4-0.3-0.7-0.7-0.7h-4.3c-0.4,0-0.7,0.3-0.7,0.7v35.4
		C26.7,36.6,27.1,36.9,27.5,36.9"/>
	<path class="st0" d="M103.1,36.9h4.3c0.4,0,0.7-0.3,0.7-0.7V21.7c0-4.5,3-6.7,7.9-5.7c0.6,0.1,1-0.2,1-0.9v-3
		c0-0.8-0.1-1.1-0.6-1.2c-0.8-0.2-2.5-0.3-3-0.3c-3.1,0-6,1.3-7.9,3.2c-1.4,1.4-3.2,3.6-3.2,7.5v14.8
		C102.4,36.6,102.7,36.9,103.1,36.9"/>
	<path class="st0" d="M85.8,36.8c2.7,0,5.2-0.8,7.4-2.2v3.2c0,4.3-3.8,5.1-6.2,5.2c-1.6,0.1-3.9-0.1-4.9-0.3c-0.7-0.1-1.1,0-1.1,0.7
		v3.8c0,0.3,0.2,0.6,0.7,0.6c5.6,0.5,9.3,0.4,12.2-1.2c2-1.1,3.4-3,4.1-5.2c0.5-1.6,0.7-3.5,0.7-5.2V23.7c0-2.9-0.8-5.7-2.5-8
		c-2.4-3.3-6.3-5.1-10.4-5.1s-7.9,1.8-10.4,5.1c-3.3,4.5-3.3,11.5,0,16C77.8,35.1,81.7,36.8,85.8,36.8 M79.5,20.7
		c0.9-2.8,3.2-5.1,6.3-5.1c6.9,0,7.2,7.1,7.2,8.1s-0.2,8.1-7.2,8.1c-3.1,0-5.3-2.3-6.3-5.1c-0.3-0.9-0.5-2-0.5-3
		S79.2,21.6,79.5,20.7"/>
	<path class="st0" d="M58.8,36.8c4.1,0.2,6.9-0.6,9-1.8c0.4-0.2,0.5-0.5,0.5-1.3v-3.3c0-0.7-0.4-1-1-0.6c-2.2,1.4-4.9,2.3-8.3,2
		c-3.4-0.3-6.3-2.7-6.6-6.1h17c0.4,0,0.7-0.3,0.7-0.7c0.3-4.7-1.1-14.5-11.5-14.5c-7.7,0-11,5.1-12.1,9.5c-0.3,1.2-0.4,2.4-0.4,3.6
		c0,2.8,0.8,5.7,2.5,8C50.9,35.1,54.8,36.7,58.8,36.8 M58.5,15.7c2.5,0,5.5,1.4,5.5,5.5H52.4C52.4,19.3,54,15.7,58.5,15.7"/>
	<path class="st0" d="M2.7,35c1.6,1.3,3.9,1.9,6.7,1.9h2h10.7c0.4,0,0.7-0.3,0.7-0.7v-7.3v-7.7c0-3.4-0.8-6.1-2.4-7.8
		c-1.7-1.8-5-2.7-8-2.7S6.2,11.5,3.6,13c-0.2,0.1-0.3,0.3-0.3,0.5l0.2,3.8c0,0.5,0.6,0.7,1.1,0.4c3.8-2.3,8.3-2.8,10.6-1.6
		c1.6,0.8,2,2.5,2,3.6v0.6H11c-2.7,0-11,1-11,8.6C0,31.5,0.9,33.6,2.7,35 M11.3,24.8h5.9v4v3.4h-5.8H9.7c-1-0.1-1.9-0.3-2.7-0.9
		c-0.9-0.7-1.2-1.4-1.3-2.5C5.8,27.5,6.8,24.8,11.3,24.8"/>
</g>
<g class="st1">
	<path class="st2" d="M175.2,29.6c0,2.1-0.8,3.8-2.3,5c-1.6,1.2-3.6,1.8-6.2,1.8c-3.1,0-5.5-0.3-7.1-1v-1.8c1.8,0.8,4.1,1.2,7,1.2
		c2.1,0,3.7-0.5,4.9-1.4c1.2-1,1.8-2.2,1.8-3.7c0-1-0.2-1.7-0.6-2.4c-0.4-0.6-1.1-1.2-2-1.7s-2.2-1.1-4-1.7
		c-2.6-0.9-4.4-1.8-5.4-2.9s-1.5-2.4-1.5-4.1c0-1.9,0.7-3.4,2.2-4.6s3.4-1.8,5.7-1.8c2.4,0,4.6,0.4,6.7,1.3l-0.6,1.5
		c-2.1-0.9-4.1-1.3-6-1.3s-3.4,0.4-4.5,1.3c-1.1,0.9-1.7,2-1.7,3.5c0,0.9,0.2,1.7,0.5,2.3s0.9,1.1,1.7,1.6s2.1,1.1,4,1.7
		c2,0.7,3.5,1.3,4.4,2c1,0.6,1.7,1.4,2.2,2.2S175.2,28.4,175.2,29.6z"/>
	<path class="st2" d="M193.2,36.1V23.9c0-1.9-0.4-3.3-1.2-4.1c-0.8-0.9-2-1.3-3.7-1.3c-2.2,0-3.9,0.6-4.9,1.7s-1.6,3-1.6,5.5v10.4
		h-1.7V9.2h1.7v8.6l-0.1,2.4h0.1c0.7-1.1,1.6-1.9,2.7-2.5c1.1-0.5,2.4-0.8,4-0.8c4.3,0,6.4,2.3,6.4,6.9v12.3H193.2z"/>
	<path class="st2" d="M216.6,26.7c0,3.1-0.7,5.5-2.2,7.2s-3.5,2.6-6.2,2.6c-1.6,0-3.1-0.4-4.4-1.2s-2.2-1.9-2.9-3.4
		c-0.7-1.5-1-3.2-1-5.2c0-3.1,0.7-5.5,2.2-7.2s3.5-2.6,6.1-2.6s4.6,0.9,6.1,2.6C215.8,21.3,216.6,23.7,216.6,26.7z M201.7,26.7
		c0,2.6,0.6,4.6,1.7,6c1.1,1.4,2.7,2.2,4.8,2.2s3.7-0.7,4.8-2.2c1.1-1.4,1.7-3.5,1.7-6c0-2.6-0.6-4.6-1.7-6s-2.8-2.1-4.8-2.1
		c-2.1,0-3.7,0.7-4.8,2.1C202.3,22.1,201.7,24.1,201.7,26.7z"/>
	<path class="st2" d="M236.8,36.1l-4.1-12.6c-0.3-0.9-0.6-2.1-1-3.8h-0.1l-0.4,1.3l-0.8,2.5L226.2,36h-1.7l-5.4-18.8h1.8l3,10.9
		c0.7,2.7,1.2,4.7,1.4,5.9h0.1c0.7-2.7,1.2-4.5,1.5-5.4l3.9-11.5h1.6l3.7,11.4c0.8,2.7,1.3,4.5,1.5,5.4h0.1c0.1-0.8,0.6-2.8,1.4-6
		l2.9-10.8h1.7l-5.1,18.8h-1.8V36.1z"/>
	<path class="st2" d="M255.3,16.9c2.6,0,4.6,0.8,5.9,2.5c1.3,1.7,2,4.1,2,7.3c0,3.1-0.7,5.5-2.1,7.2s-3.4,2.5-5.9,2.5
		c-1.3,0-2.5-0.3-3.6-0.8c-1.1-0.6-1.9-1.3-2.5-2.4h-0.2l-0.5,2.8h-1.1V9.2h1.7V16c0,1,0,1.9-0.1,2.8l-0.1,1.5h0.1
		c0.7-1.1,1.6-2,2.6-2.5C252.7,17.2,253.9,16.9,255.3,16.9z M255.3,18.5c-2.2,0-3.8,0.6-4.8,1.9s-1.4,3.4-1.4,6.3V27
		c0,2.8,0.5,4.9,1.5,6.1c1,1.2,2.6,1.8,4.7,1.8s3.6-0.7,4.6-2.2s1.6-3.5,1.6-6.1C261.4,21.2,259.4,18.5,255.3,18.5z"/>
	<path class="st2" d="M284,26.7c0,3.1-0.7,5.5-2.2,7.2s-3.5,2.6-6.2,2.6c-1.6,0-3.1-0.4-4.4-1.2s-2.2-1.9-2.9-3.4
		c-0.7-1.5-1-3.2-1-5.2c0-3.1,0.7-5.5,2.2-7.2s3.5-2.6,6.1-2.6s4.6,0.9,6.1,2.6C283.2,21.3,284,23.7,284,26.7z M269.2,26.7
		c0,2.6,0.6,4.6,1.7,6c1.1,1.4,2.7,2.2,4.8,2.2s3.7-0.7,4.8-2.2c1.1-1.4,1.7-3.5,1.7-6c0-2.6-0.6-4.6-1.7-6s-2.8-2.1-4.8-2.1
		c-2.1,0-3.7,0.7-4.8,2.1C269.7,22.1,269.2,24.1,269.2,26.7z"/>
	<path class="st2" d="M293.8,26.4l-6.6-9.1h2l5.6,7.9l5.5-7.9h1.9l-6.4,9.1l6.9,9.7h-2l-5.9-8.4l-5.9,8.4H287L293.8,26.4z"/>
</g>
</svg>
